<svg xmlns="http://www.w3.org/2000/svg" width="64" height="64" viewBox="0 0 64 64" fill="none" aria-hidden="true">
  <defs>
    <linearGradient id="g" x1="8" y1="14" x2="56" y2="50" gradientUnits="userSpaceOnUse">
      <stop stop-color="#5ac8fa"/>
      <stop offset="1" stop-color="#0071e3"/>
    </linearGradient>
  </defs>
  <rect width="64" height="64" rx="14" fill="#f5f5f7"/>
  <path d="M32 46c-10 0-18-7-18-16.5C14 22 18.5 16 25 14.2c1.4-7.2 7.6-12.7 15-12.7 5.1 0 9.6 2.3 12.6 6 1.8-.4 3.7-.7 5.6-.7 9.2 0 16.8 7.5 16.8 16.8 0 .8-.1 1.5-.2 2.2 6.3 1.8 10.8 7.5 10.8 14.2 0 8.3-6.7 15-15 15H32z" fill="url(#g)"/>
</svg>
