<svg xmlns="http://www.w3.org/2000/svg" width="240" height="52" viewBox="0 0 240 52" fill="none" aria-label="Alijay Cloud">
  <defs>
    <linearGradient id="cloud" x1="8" y1="12" x2="40" y2="40" gradientUnits="userSpaceOnUse">
      <stop stop-color="#5ac8fa"/>
      <stop offset="1" stop-color="#0071e3"/>
    </linearGradient>
  </defs>
  <path d="M28 34c-6.6 0-12-4.6-12-11.2 0-5.2 3.4-9.6 8.2-11.1.9-4.8 5-8.4 10-8.4 3.4 0 6.4 1.5 8.4 3.9 1.2-.3 2.5-.5 3.8-.5 6.1 0 11 4.9 11 11 0 .5 0 1-.1 1.5 4.2 1.2 7.1 5 7.1 9.4 0 5.5-4.5 10-10 10H28z" fill="url(#cloud)"/>
  <text x="52" y="33" fill="#1d1d1f" font-family="-apple-system,BlinkMacSystemFont,system-ui,sans-serif" font-size="22" font-weight="600">Alijay Cloud</text>
</svg>
